<svg xmlns="http://www.w3.org/2000/svg" xmlns:xlink="http://www.w3.org/1999/xlink" viewBox="0 0 156.25 169.36"><defs><style>.cls-1,.cls-2{fill:#fff;}.cls-2{filter:url(#luminosity-invert-noclip-2);}.cls-3{mask:url(#mask);}.cls-4{mask:url(#mask-2);}.cls-5{fill:#cecece;}.cls-6{fill:none;}.cls-7{filter:url(#luminosity-invert-noclip);}</style><filter id="luminosity-invert-noclip" x="79.49" y="44.4" width="53.66" height="72.78" filterUnits="userSpaceOnUse" color-interpolation-filters="sRGB"><feColorMatrix values="-1 0 0 0 1 0 -1 0 0 1 0 0 -1 0 1 0 0 0 1 0" result="invert"/><feFlood flood-color="#fff" result="bg"/><feBlend in="invert" in2="bg"/></filter><mask id="mask" x="79.49" y="44.4" width="53.66" height="72.78" maskUnits="userSpaceOnUse"><g class="cls-7"><polygon class="cls-1" points="92 99.26 92 114.35 87 117.18 87 98.31 92 99.26"/><polygon class="cls-1" points="128.32 79.61 133.15 81.18 121.89 89.36 116.35 88.31 128.32 79.61"/><polygon class="cls-1" points="120.32 73.87 125.15 75.44 113.89 83.62 108.35 82.56 120.32 73.87"/><polygon class="cls-1" points="79.49 49.48 79.49 44.4 90.75 52.58 91.46 58.17 79.49 49.48"/><polygon class="cls-1" points="82 63.41 82 58.34 93.26 66.52 93.97 72.11 82 63.41"/></g></mask><filter id="luminosity-invert-noclip-2" x="0" y="0" width="156.25" height="169.36" filterUnits="userSpaceOnUse" color-interpolation-filters="sRGB"><feColorMatrix values="-1 0 0 0 1 0 -1 0 0 1 0 0 -1 0 1 0 0 0 1 0" result="invert"/><feFlood flood-color="#fff" result="bg"/><feBlend in="invert" in2="bg"/></filter><mask id="mask-2" x="0" y="0" width="156.25" height="169.36" maskUnits="userSpaceOnUse"><polygon class="cls-2" points="82 105.22 82 120.31 77 123.14 77 104.26 82 105.22"/></mask></defs><g id="Layer_2" data-name="Layer 2"><g id="Layer_1-2" data-name="Layer 1"><g class="cls-3"><g class="cls-4"><path class="cls-5" d="M8.17,169.36A8.18,8.18,0,0,1,0,161.2V8.16a8.16,8.16,0,0,1,12.94-6.6L82,51.62V8.7A8.15,8.15,0,0,1,95.19,2.28L153,47.59a8.16,8.16,0,0,1-.07,12.89L124.39,82.35,152.88,103a8.14,8.14,0,0,1,.58,12.74L95.52,166.36A8.16,8.16,0,0,1,82,160.21V114.85L13.12,167.67A8.12,8.12,0,0,1,8.17,169.36ZM8.17,5a3.16,3.16,0,0,0-1.45.35A3.1,3.1,0,0,0,5,8.16v153a3.16,3.16,0,0,0,5.08,2.5L82,108.55V57.8L10,5.61A3.1,3.1,0,0,0,8.17,5ZM87,111v49.19a3.15,3.15,0,0,0,5.23,2.38L150.17,112a3.16,3.16,0,0,0-.22-4.94l-29.7-21.53Zm0-5.83,1.29,1.68Zm0-43.77v43.29l29-22.25Zm0-6.18,33.16,24,29.7-22.77a3.16,3.16,0,0,0,0-5L92.1,6.22A3.15,3.15,0,0,0,87,8.7Z"/></g></g><line class="cls-6" x1="75" y1="111.2" x2="75" y2="121.18"/></g></g></svg>