<svg xmlns="http://www.w3.org/2000/svg" viewBox="0 0 221.5 173.62"><defs><style>.cls-1{fill:#000d1a;stroke:#000;stroke-miterlimit:10;stroke-width:0.5px;}</style></defs><g id="Layer_2" data-name="Layer 2"><g id="Layer_1-2" data-name="Layer 1"><path class="cls-1" d="M63.62,60.34S.25,56.82.25,116.66,63.62,173,63.62,173,39,155.39,39,116.66,63.62,60.34,63.62,60.34Z"/><path class="cls-1" d="M84.44,173h39V.49S84.74,28.65,77.7,28.65c0,0,7,3.52,6.74,28.17C84.1,85,84.44,173,84.44,173Z"/><path class="cls-1" d="M157.67,7.53s16.67,10.56,16.67,35.21-16.67,37.19-16.67,37.19,20,19.13,20,43.77c0,31.69-20,49.33-20,49.33s59.84,7,63.36-42.29-36.68-49.28-36.68-49.28S214,77.94,211,42.74C207.78,4.15,157.67,7.53,157.67,7.53Z"/></g></g></svg>