<svg xmlns="http://www.w3.org/2000/svg" viewBox="0 0 96 96"><defs><style>.cls-1{fill:none;}.cls-2{fill:#000d1a;}</style></defs><g id="Layer_2" data-name="Layer 2"><g id="Layer_1-2" data-name="Layer 1"><rect class="cls-1" width="96" height="96"/><path class="cls-2" d="M29.61,39.5S5.33,38.11,5.33,61.75,29.61,84,29.61,84s-9.45-7-9.45-22.25S29.61,39.5,29.61,39.5Z"/><path class="cls-2" d="M37.58,84h15V15.86S37.7,27,35,27c0,0,2.7,1.4,2.58,11.13C37.45,49.23,37.58,84,37.58,84Z"/><path class="cls-2" d="M65.64,18.64S72,22.81,72,32.55a19.22,19.22,0,0,1-6.39,14.69s7.67,7.56,7.67,17.29A27.55,27.55,0,0,1,65.64,84s22.93,2.76,24.28-16.71S75.86,47.84,75.86,47.84s11.36-1.39,10.22-15.29C84.84,17.3,65.64,18.64,65.64,18.64Z"/></g></g></svg>