<svg xmlns="http://www.w3.org/2000/svg" viewBox="0 0 221 172.88"><defs><style>.cls-1{fill:#000d1a;}</style></defs><g id="Layer_2" data-name="Layer 2"><g id="Layer_1-2" data-name="Layer 1"><path class="cls-1" d="M63.37,59.85S0,56.33,0,116.17,63.37,172.5,63.37,172.5s-24.65-17.6-24.65-56.33S63.37,59.85,63.37,59.85Z"/><path class="cls-1" d="M84.19,172.5h39V0S84.49,28.16,77.45,28.16c0,0,7,3.52,6.74,28.17C83.85,84.49,84.19,172.5,84.19,172.5Z"/><path class="cls-1" d="M157.42,7s16.67,10.56,16.67,35.2-16.67,37.2-16.67,37.2,20,19.13,20,43.77c0,31.69-20,49.33-20,49.33s59.84,7,63.36-42.29S184.1,81,184.1,81s29.64-3.52,26.68-38.73C207.53,3.66,157.42,7,157.42,7Z"/></g></g></svg>